<?xml version="1.0" standalone="no"?>
<!DOCTYPE svg PUBLIC "-//W3C//DTD SVG 20010904//EN"
 "http://www.w3.org/TR/2001/REC-SVG-20010904/DTD/svg10.dtd">
<svg version="1.0" xmlns="http://www.w3.org/2000/svg"
 width="2048.000000pt" height="2048.000000pt" viewBox="0 0 2048.000000 2048.000000"
 preserveAspectRatio="xMidYMid meet">
<metadata>
Created by potrace 1.16, written by Peter Selinger 2001-2019
</metadata>
<g transform="translate(0.000000,2048.000000) scale(0.100000,-0.100000)"
fill="#000000" stroke="none">
<path d="M4672 16378 c-262 -29 -494 -242 -557 -512 -13 -53 -15 -802 -15
-5603 0 -5112 1 -5549 16 -5615 59 -258 262 -467 519 -533 53 -13 657 -15
5605 -15 l5545 0 75 21 c246 68 429 252 502 505 l23 79 -3 5550 c-4 5413 -4
5551 -23 5625 -33 131 -81 214 -178 310 -95 94 -186 147 -301 176 -60 15 -511
17 -5605 18 -3047 0 -5569 -2 -5603 -6z m4065 -2613 c58 -24 98 -59 157 -138
161 -213 309 -346 651 -584 255 -178 401 -321 506 -494 120 -200 184 -450 177
-697 l-3 -112 1398 0 1399 0 -4 183 c-3 180 -3 182 -33 236 -32 59 -75 96
-132 117 -31 11 -236 13 -1080 14 l-1043 0 -5 28 c-32 147 -145 425 -215 527
-17 24 -30 48 -30 54 0 8 374 11 1268 11 1221 0 1272 -1 1344 -19 234 -60 410
-223 489 -453 39 -117 49 -208 49 -469 l0 -229 268 0 c301 0 342 -6 449 -66
87 -48 155 -119 197 -206 74 -150 72 -241 -9 -538 -30 -113 -73 -270 -94 -350
-120 -447 -219 -813 -300 -1110 -50 -184 -121 -445 -157 -580 -119 -446 -132
-493 -204 -760 -40 -146 -76 -278 -80 -295 -4 -16 -31 -115 -59 -220 -29 -104
-67 -246 -86 -315 -56 -207 -115 -314 -234 -422 -113 -102 -238 -160 -386
-178 -88 -11 -4438 -12 -4433 -1 2 4 35 35 73 68 222 191 395 412 515 658 95
195 137 322 183 560 21 109 22 119 24 1920 2 996 3 1816 3 1823 0 9 60 12 265
12 l265 0 -25 68 c-64 168 -182 320 -323 412 -94 62 -276 144 -378 171 -43 11
-125 23 -181 26 l-102 6 -36 -36 -35 -35 0 -2098 c0 -2225 1 -2162 -45 -2336
-59 -227 -201 -462 -400 -664 -385 -390 -944 -605 -1442 -555 -398 40 -729
243 -877 536 -87 174 -117 335 -98 524 32 316 186 610 456 876 220 216 490
374 796 465 257 76 587 90 802 34 32 -8 69 -12 83 -8 58 14 54 -126 57 2206
l3 2143 23 64 c43 118 104 182 213 221 72 26 358 29 416 5z m-1167 -117 c0 -2
-8 -39 -17 -83 -15 -73 -17 -252 -20 -1967 l-4 -1888 -22 0 c-70 0 -258 -24
-357 -46 -431 -95 -846 -314 -1163 -614 -52 -49 -98 -90 -101 -90 -4 0 -5 917
-3 2038 3 2276 -3 2089 75 2254 66 141 177 256 318 328 132 68 137 68 747 69
301 1 547 0 547 -1z"/>
<path d="M10190 10434 c-80 -35 -130 -111 -130 -199 0 -97 62 -179 154 -204
30 -9 437 -11 1506 -9 1463 3 1465 3 1505 24 153 80 148 307 -8 383 l-43 21
-1475 0 c-1294 -1 -1478 -3 -1509 -16z"/>
<path d="M10185 9411 c-161 -74 -169 -302 -13 -382 36 -18 81 -19 1384 -19
l1347 0 44 25 c114 67 138 222 50 322 -18 20 -50 44 -72 54 -38 18 -105 19
-1370 19 -1273 0 -1332 -1 -1370 -19z"/>
<path d="M10185 8391 c-81 -36 -130 -121 -123 -212 5 -73 40 -128 105 -166
l48 -28 1125 -3 c785 -2 1140 0 1176 8 165 35 222 246 97 361 -67 63 20 59
-1240 59 -1092 0 -1150 -1 -1188 -19z"/>
</g>
</svg>
